TITLE ""
FILE "DISC1Track34.mp3" MP3
  TRACK 01 AUDIO
    TITLE "DISC1Track34_01"
    INDEX 01 00:00:00
  TRACK 02 AUDIO
    TITLE "DISC1Track34_02"
    INDEX 01 00:04:28
  TRACK 03 AUDIO
    TITLE "DISC1Track34_03"
    INDEX 01 00:04:51
  TRACK 04 AUDIO
    TITLE "DISC1Track34_04"
    INDEX 01 00:07:26
  TRACK 05 AUDIO
    TITLE "DISC1Track34_05"
    INDEX 01 00:09:56
  TRACK 06 AUDIO
    TITLE "DISC1Track34_06"
    INDEX 01 00:12:04
  TRACK 07 AUDIO
    TITLE "DISC1Track34_07"
    INDEX 01 00:12:29
  TRACK 08 AUDIO
    TITLE "DISC1Track34_08"
    INDEX 01 00:15:47
  TRACK 09 AUDIO
    TITLE "DISC1Track34_09"
    INDEX 01 00:17:64
  TRACK 10 AUDIO
    TITLE "DISC1Track34_10"
    INDEX 01 00:20:01
  TRACK 11 AUDIO
    TITLE "DISC1Track34_11"
    INDEX 01 00:20:19
  TRACK 12 AUDIO
    TITLE "DISC1Track34_12"
    INDEX 01 00:23:17
  TRACK 13 AUDIO
    TITLE "DISC1Track34_13"
    INDEX 01 00:26:02
  TRACK 14 AUDIO
    TITLE "DISC1Track34_14"
    INDEX 01 00:28:58
  TRACK 15 AUDIO
    TITLE "DISC1Track34_15"
    INDEX 01 00:29:04
  TRACK 16 AUDIO
    TITLE "DISC1Track34_16"
    INDEX 01 00:31:25
  TRACK 17 AUDIO
    TITLE "DISC1Track34_17"
    INDEX 01 00:33:39
  TRACK 18 AUDIO
    TITLE "DISC1Track34_18"
    INDEX 01 00:35:46
  TRACK 19 AUDIO
    TITLE "DISC1Track34_19"
    INDEX 01 00:35:71
  TRACK 20 AUDIO
    TITLE "DISC1Track34_20"
    INDEX 01 00:37:66
  TRACK 21 AUDIO
    TITLE "DISC1Track34_21"
    INDEX 01 00:39:48
  TRACK 22 AUDIO
    TITLE "DISC1Track34_22"
    INDEX 01 00:41:21
  TRACK 23 AUDIO
    TITLE "DISC1Track34_23"
    INDEX 01 00:41:46
  TRACK 24 AUDIO
    TITLE "DISC1Track34_24"
    INDEX 01 00:45:01
  TRACK 25 AUDIO
    TITLE "DISC1Track34_25"
    INDEX 01 00:48:35
  TRACK 26 AUDIO
    TITLE "DISC1Track34_26"
    INDEX 01 00:51:55
  TRACK 27 AUDIO
    TITLE "DISC1Track34_27"
    INDEX 01 00:52:13
  TRACK 28 AUDIO
    TITLE "DISC1Track34_28"
    INDEX 01 00:56:03
  TRACK 29 AUDIO
    TITLE "DISC1Track34_29"
    INDEX 01 00:58:43
  TRACK 30 AUDIO
    TITLE "DISC1Track34_30"
    INDEX 01 01:00:75
  TRACK 31 AUDIO
    TITLE "DISC1Track34_31"
    INDEX 01 01:01:26
  TRACK 32 AUDIO
    TITLE "DISC1Track34_32"
    INDEX 01 01:04:38
  TRACK 33 AUDIO
    TITLE "DISC1Track34_33"
    INDEX 01 01:07:24
  TRACK 34 AUDIO
    TITLE "DISC1Track34_34"
    INDEX 01 01:10:07
  TRACK 35 AUDIO
    TITLE "DISC1Track34_35"
    INDEX 01 01:10:31
  TRACK 36 AUDIO
    TITLE "DISC1Track34_36"
    INDEX 01 01:13:33
  TRACK 37 AUDIO
    TITLE "DISC1Track34_37"
    INDEX 01 01:16:17
  TRACK 38 AUDIO
    TITLE "DISC1Track34_38"
    INDEX 01 01:18:71
  TRACK 39 AUDIO
    TITLE "DISC1Track34_39"
    INDEX 01 01:19:18
  TRACK 40 AUDIO
    TITLE "DISC1Track34_40"
    INDEX 01 01:22:59
  TRACK 41 AUDIO
    TITLE "DISC1Track34_41"
    INDEX 01 01:25:61
  TRACK 42 AUDIO
    TITLE "DISC1Track34_42"
    INDEX 01 01:28:62
  TRACK 43 AUDIO
    TITLE "DISC1Track34_43"
    INDEX 01 01:29:08
  TRACK 44 AUDIO
    TITLE "DISC1Track34_44"
    INDEX 01 01:32:44
  TRACK 45 AUDIO
    TITLE "DISC1Track34_45"
    INDEX 01 01:35:60
  TRACK 46 AUDIO
    TITLE "DISC1Track34_46"
    INDEX 01 01:38:64
